<svg width="335" height="248" viewBox="0 0 335 248" fill="none" xmlns="http://www.w3.org/2000/svg">
<path d="M128.417 82.6667H117.25V90.9333H128.417V82.6667Z" fill="#023E8A"/>
<path d="M128.417 99.2H117.25V107.467H128.417V99.2Z" fill="#023E8A"/>
<path d="M128.417 115.733H117.25V124H128.417V115.733Z" fill="#023E8A"/>
<path d="M128.417 132.267H117.25V140.533H128.417V132.267Z" fill="#023E8A"/>
<path d="M150.75 82.6667H139.583V90.9333H150.75V82.6667Z" fill="#023E8A"/>
<path d="M150.75 99.2H139.583V107.467H150.75V99.2Z" fill="#023E8A"/>
<path d="M150.75 115.733H139.583V124H150.75V115.733Z" fill="#023E8A"/>
<path d="M150.75 132.267H139.583V140.533H150.75V132.267Z" fill="#023E8A"/>
<path d="M173.083 82.6667H161.917V90.9333H173.083V82.6667Z" fill="#023E8A"/>
<path d="M173.083 99.2H161.917V107.467H173.083V99.2Z" fill="#023E8A"/>
<path d="M173.083 115.733H161.917V124H173.083V115.733Z" fill="#023E8A"/>
<path d="M173.083 132.267H161.917V140.533H173.083V132.267Z" fill="#023E8A"/>
<path d="M195.417 82.6667H184.25V90.9333H195.417V82.6667Z" fill="#023E8A"/>
<path d="M150.75 66.1334H139.583V74.4H150.75V66.1334Z" fill="#023E8A"/>
<path d="M173.083 66.1334H161.917V74.4H173.083V66.1334Z" fill="#023E8A"/>
<path d="M195.417 66.1334H184.25V74.4H195.417V66.1334Z" fill="#023E8A"/>
<path d="M195.417 99.2H184.25V107.467H195.417V99.2Z" fill="#023E8A"/>
<path d="M195.417 115.733H184.25V124H195.417V115.733Z" fill="#023E8A"/>
<path d="M195.417 132.267H184.25V140.533H195.417V132.267Z" fill="#023E8A"/>
<path d="M217.75 82.6667H206.583V90.9333H217.75V82.6667Z" fill="#023E8A"/>
<path d="M217.75 99.2H206.583V107.467H217.75V99.2Z" fill="#023E8A"/>
<path d="M217.75 115.733H206.583V124H217.75V115.733Z" fill="#023E8A"/>
<path d="M217.75 132.267H206.583V140.533H217.75V132.267Z" fill="#023E8A"/>
<path d="M329.423 62C329.421 62 329.419 62 329.417 62H245.667V4.13333C245.669 1.85173 243.172 0.00155097 240.09 9.73994e-07C240.088 9.73994e-07 240.085 9.73994e-07 240.083 9.73994e-07H94.9167C91.8347 -0.00154903 89.3354 1.84708 89.3333 4.12868C89.3333 4.13023 89.3333 4.13178 89.3333 4.13333V62H5.58333C2.50133 61.9984 0.00209507 63.8471 1.31568e-06 66.1287C1.31568e-06 66.1302 1.31568e-06 66.1318 1.31568e-06 66.1333V214.933C-0.00209243 217.215 2.49505 219.065 5.57705 219.067C5.57915 219.067 5.58124 219.067 5.58333 219.067H17.2546C16.9308 220.432 16.7619 221.814 16.75 223.2V243.867C16.7479 246.148 19.2451 247.998 22.3271 248C22.3291 248 22.3312 248 22.3333 248H312.667C315.749 248.002 318.248 246.153 318.25 243.871C318.25 243.87 318.25 243.868 318.25 243.867V223.2C318.239 221.814 318.07 220.432 317.745 219.067H329.417C332.499 219.068 334.998 217.22 335 214.938C335 214.936 335 214.935 335 214.933V66.1333C335.002 63.8517 332.505 62.0015 329.423 62ZM240.083 177.733C240.083 182.299 235.084 186 228.917 186C222.749 186 217.75 182.299 217.75 177.733C217.75 173.168 222.749 169.467 228.917 169.467C235.081 169.472 240.076 173.17 240.083 177.733ZM106.083 169.467C112.251 169.467 117.25 173.168 117.25 177.733C117.25 182.299 112.251 186 106.083 186C99.9158 186 94.9167 182.299 94.9167 177.733C94.9243 173.17 99.9193 169.472 106.083 169.467ZM72.5833 239.733H27.9167V223.2C27.9167 214.069 37.9157 206.667 50.25 206.667C62.5843 206.667 72.5833 214.069 72.5833 223.2V239.733ZM39.0833 190.133C39.0833 185.568 44.0825 181.867 50.25 181.867C56.4175 181.867 61.4167 185.568 61.4167 190.133C61.4167 194.699 56.4175 198.4 50.25 198.4C44.086 198.394 39.091 194.697 39.0833 190.133ZM73.4292 205.336C71.3236 203.833 68.9625 202.539 66.4054 201.488C74.9214 194.883 74.5926 184.417 65.6705 178.112C56.7483 171.807 42.6113 172.051 34.0946 178.656C25.8571 185.045 25.8571 195.098 34.0946 201.487C28.7653 203.677 24.3378 206.895 21.2823 210.799H11.1667V70.2667H89.3333V166.912C81.666 173.281 81.925 182.949 89.928 189.088C81.553 192.517 75.5516 198.427 73.4292 205.336ZM128.417 239.733H83.75V210.8C83.75 201.669 93.7491 194.267 106.083 194.267C118.418 194.267 128.417 201.669 128.417 210.8V239.733ZM195.417 239.733H139.583V210.8C139.583 199.386 152.082 190.133 167.5 190.133C182.918 190.133 195.417 199.386 195.417 210.8V239.733ZM150.75 169.467C150.75 162.618 158.249 157.067 167.5 157.067C176.751 157.067 184.25 162.618 184.25 169.467C184.25 176.315 176.751 181.867 167.5 181.867C158.253 181.859 150.76 176.312 150.75 169.467ZM201.504 196.589C197.765 191.71 192.203 187.734 185.485 185.14C197.277 177.787 198.785 164.748 188.853 156.018C178.92 147.288 161.308 146.172 149.515 153.525C137.723 160.878 136.215 173.916 146.147 182.646C147.172 183.547 148.298 184.381 149.515 185.14C142.797 187.734 137.235 191.71 133.496 196.589C130.561 193.489 126.711 190.924 122.239 189.088C130.799 182.605 130.64 172.212 121.882 165.875C116.244 161.795 108.102 160.238 100.5 161.787V8.26667H234.5V161.787C232.681 161.415 230.804 161.218 228.917 161.2C216.615 161.176 206.616 168.539 206.583 177.646C206.568 181.907 208.782 186.008 212.761 189.088C208.289 190.924 204.439 193.489 201.504 196.589ZM251.25 223.2V239.733H206.583V210.8C206.583 201.669 216.582 194.267 228.917 194.267C241.251 194.267 251.25 201.669 251.25 210.8V223.2ZM307.083 239.733H262.417V223.2C262.417 214.069 272.416 206.667 284.75 206.667C297.084 206.667 307.083 214.069 307.083 223.2V239.733ZM273.583 190.133C273.583 185.568 278.583 181.867 284.75 181.867C290.918 181.867 295.917 185.568 295.917 190.133C295.917 194.699 290.918 198.4 284.75 198.4C278.586 198.394 273.591 194.697 273.583 190.133ZM323.833 210.8H313.718C310.662 206.896 306.235 203.677 300.905 201.488C309.421 194.883 309.093 184.417 300.17 178.112C291.248 171.808 277.111 172.051 268.595 178.656C260.357 185.045 260.357 195.098 268.595 201.487C266.037 202.538 263.676 203.832 261.571 205.336C259.449 198.427 253.447 192.516 245.072 189.087C253.075 182.949 253.335 173.281 245.667 166.912V70.2667H323.834V210.8H323.833Z" fill="#023E8A"/>
<path d="M273.583 95.0667H262.417V161.2H273.583V95.0667Z" fill="#023E8A"/>
<path d="M307.083 95.0667H295.917V161.2H307.083V95.0667Z" fill="#023E8A"/>
<path d="M39.0833 95.0667H27.9166V161.2H39.0833V95.0667Z" fill="#023E8A"/>
<path d="M72.5834 95.0667H61.4167V161.2H72.5834V95.0667Z" fill="#023E8A"/>
<path d="M201.006 16.5333C201.004 16.5333 201.002 16.5333 201 16.5333H134C130.918 16.5318 128.419 18.3804 128.417 20.662C128.417 20.6636 128.417 20.6651 128.417 20.6667V53.7333C128.415 56.0149 130.912 57.8651 133.994 57.8667C133.996 57.8667 133.998 57.8667 134 57.8667H201C204.082 57.8682 206.581 56.0196 206.583 53.738C206.583 53.7364 206.583 53.7349 206.583 53.7333V20.6667C206.585 18.3851 204.088 16.5349 201.006 16.5333ZM195.417 49.6H139.583V24.8H195.417V49.6Z" fill="#023E8A"/>
</svg>
